<?xml version="1.0" encoding="UTF-8" standalone="no"?>
<!-- Created with Inkscape (http://www.inkscape.org/) -->

<svg
   width="16"
   height="16"
   viewBox="0 0 16 16"
   version="1.1"
   id="svg1"
   inkscape:version="1.4 (e7c3feb100, 2024-10-09)"
   sodipodi:docname="animation.svg"
   xml:space="preserve"
   xmlns:inkscape="http://www.inkscape.org/namespaces/inkscape"
   xmlns:sodipodi="http://sodipodi.sourceforge.net/DTD/sodipodi-0.dtd"
   xmlns:xlink="http://www.w3.org/1999/xlink"
   xmlns="http://www.w3.org/2000/svg"
   xmlns:svg="http://www.w3.org/2000/svg"><sodipodi:namedview
     id="namedview1"
     pagecolor="#808080"
     bordercolor="#000000"
     borderopacity="0.25"
     inkscape:showpageshadow="2"
     inkscape:pageopacity="0.0"
     inkscape:pagecheckerboard="0"
     inkscape:deskcolor="#d1d1d1"
     inkscape:document-units="px"
     inkscape:zoom="5.9794051"
     inkscape:cx="21.07233"
     inkscape:cy="-0.41810179"
     inkscape:window-width="2560"
     inkscape:window-height="1048"
     inkscape:window-x="0"
     inkscape:window-y="0"
     inkscape:window-maximized="1"
     inkscape:current-layer="layer1" /><defs
     id="defs1"><linearGradient
       id="linearGradient14"
       inkscape:collect="always"><stop
         style="stop-color:#8eef97;stop-opacity:1;"
         offset="0.38485587"
         id="stop14" /><stop
         style="stop-color:#c38ef1;stop-opacity:1;"
         offset="0.73301756"
         id="stop15" /></linearGradient><linearGradient
       inkscape:collect="always"
       xlink:href="#linearGradient14"
       id="linearGradient15"
       x1="0.83620358"
       y1="0.79439342"
       x2="14.549943"
       y2="16.055109"
       gradientUnits="userSpaceOnUse" /></defs><g
     inkscape:label="Layer 1"
     inkscape:groupmode="layer"
     id="layer1"><path
       id="path3"
       style="fill:url(#linearGradient15);stroke-linecap:round;fill-opacity:1"
       d="M 6.9628906 0.21875 A 0.89999998 0.89999998 0 0 0 6.3261719 0.48242188 A 0.89999998 0.89999998 0 0 0 6.3261719 1.7558594 L 7.375 2.8027344 L 8.3261719 3.7558594 A 0.89999998 0.89999998 0 0 0 8.9921875 4.0078125 C 11.758026 4.0078125 13.980469 6.2302545 13.980469 8.9960938 C 13.980469 11.761933 11.758026 13.984375 8.9921875 13.984375 C 6.2473022 13.984375 4.0391829 11.795212 4.0058594 9.0585938 A 0.89999998 0.89999998 0 0 0 3.7578125 8.265625 L 1.7578125 6.265625 A 0.89999998 0.89999998 0 0 0 1.1230469 6.0019531 A 0.89999998 0.89999998 0 0 0 0.48632812 6.265625 A 0.89999998 0.89999998 0 0 0 0.48632812 7.5371094 L 2.2148438 9.265625 C 2.3576451 12.877604 5.3463457 15.78125 8.9921875 15.78125 C 12.728554 15.78125 15.777344 12.732461 15.777344 8.9960938 C 15.777344 5.3745323 12.914383 2.3981898 9.3359375 2.21875 L 8.6464844 1.5292969 L 7.5996094 0.48242188 A 0.89999998 0.89999998 0 0 0 6.9628906 0.21875 z M 1.3730469 0.3515625 A 0.89999998 0.89999998 0 0 0 0.73632812 0.61523438 A 0.89999998 0.89999998 0 0 0 0.73632812 1.8867188 L 4.5175781 5.6699219 A 0.89999998 0.89999998 0 0 0 5.7910156 5.6699219 A 0.89999998 0.89999998 0 0 0 5.7910156 4.3964844 L 2.0078125 0.61523438 A 0.89999998 0.89999998 0 0 0 1.3730469 0.3515625 z M 7.6152344 6.0585938 A 0.61124052 0.61124052 0 0 0 7.0214844 6.6679688 L 7.0214844 11.558594 A 0.61124052 0.61124052 0 0 0 7.9707031 12.066406 L 11.638672 9.6230469 A 0.61124052 0.61124052 0 0 0 11.638672 8.6054688 L 7.9707031 6.1601562 A 0.61124052 0.61124052 0 0 0 7.6152344 6.0585938 z " /></g></svg>
