<?xml version="1.0" encoding="UTF-8" standalone="no"?>
<!-- Created with Inkscape (http://www.inkscape.org/) -->

<svg
   width="16"
   height="16"
   viewBox="0 0 16 16"
   version="1.1"
   id="svg1"
   inkscape:version="1.4 (e7c3feb100, 2024-10-09)"
   sodipodi:docname="copy.svg"
   xml:space="preserve"
   xmlns:inkscape="http://www.inkscape.org/namespaces/inkscape"
   xmlns:sodipodi="http://sodipodi.sourceforge.net/DTD/sodipodi-0.dtd"
   xmlns:xlink="http://www.w3.org/1999/xlink"
   xmlns="http://www.w3.org/2000/svg"
   xmlns:svg="http://www.w3.org/2000/svg"><sodipodi:namedview
     id="namedview1"
     pagecolor="#808080"
     bordercolor="#000000"
     borderopacity="0.25"
     inkscape:showpageshadow="2"
     inkscape:pageopacity="0.0"
     inkscape:pagecheckerboard="0"
     inkscape:deskcolor="#d1d1d1"
     inkscape:document-units="px"
     inkscape:zoom="8.4561558"
     inkscape:cx="-13.481303"
     inkscape:cy="20.162826"
     inkscape:window-width="2560"
     inkscape:window-height="1048"
     inkscape:window-x="0"
     inkscape:window-y="0"
     inkscape:window-maximized="1"
     inkscape:current-layer="layer1" /><defs
     id="defs1"><linearGradient
       id="linearGradient14"
       inkscape:collect="always"><stop
         style="stop-color:#8eef97;stop-opacity:1;"
         offset="0.38485587"
         id="stop14" /><stop
         style="stop-color:#c38ef1;stop-opacity:1;"
         offset="0.73301756"
         id="stop15" /></linearGradient><linearGradient
       inkscape:collect="always"
       xlink:href="#linearGradient14"
       id="linearGradient18"
       x1="0.52434778"
       y1="0.1898675"
       x2="13.401884"
       y2="13.067404"
       gradientUnits="userSpaceOnUse" /></defs><g
     inkscape:label="Layer 1"
     inkscape:groupmode="layer"
     id="layer1"><g
       id="g17"
       transform="translate(0.5,0.5)"
       style="fill-opacity:1;fill:url(#linearGradient18)"><path
         d="M 12.482422,4.1269531 C 12.65623,4.7225604 12.75,5.3508868 12.75,6 12.75,6.4435586 12.70414,6.8764126 12.621094,7.296875 12.86243,7.812961 13,8.3892726 13,9 13,11.220984 11.220984,13 9,13 8.3892726,13 7.812961,12.862431 7.296875,12.621094 6.8764126,12.704139 6.4435586,12.75 6,12.75 5.3508868,12.75 4.7225604,12.65623 4.1269531,12.482422 5.2175094,14.003053 6.9952671,15 9,15 12.301864,15 15,12.301864 15,9 15,6.9952671 14.003053,5.2175094 12.482422,4.1269531 Z"
         style="fill:url(#linearGradient18);fill-opacity:1"
         id="path17" /><path
         style="fill:url(#linearGradient18);fill-opacity:1"
         d="M 6,0 C 2.6981361,0 0,2.6981361 0,6 0,9.3018639 2.6981361,12 6,12 9.3018639,12 12,9.3018639 12,6 12,2.6981361 9.3018639,0 6,0 Z m 0,2 c 2.2209836,0 4,1.7790164 4,4 0,2.2209836 -1.7790164,4 -4,4 C 3.7790164,10 2,8.2209836 2,6 2,3.7790164 3.7790164,2 6,2 Z"
         id="circle1-6" /><path
         fill="#e0e0e0"
         d="m 4.5347491,8.0803453 a 0.48263991,0.48263991 0 0 0 0.7505051,0.4015571 l 2.8958391,-1.93056 a 0.48263991,0.48263991 0 0 0 0,-0.8031129 L 5.2852542,3.8176699 A 0.48263991,0.48263991 0 0 0 4.5347491,4.2192263 Z"
         id="path1"
         style="stroke-width:0.482639;fill-opacity:1;fill:url(#linearGradient18)" /></g></g></svg>
