<?xml version="1.0" encoding="UTF-8" standalone="no"?>
<!-- Created with Inkscape (http://www.inkscape.org/) -->

<svg
   width="16"
   height="16"
   viewBox="0 0 16 16"
   version="1.1"
   id="svg1"
   inkscape:version="1.4 (e7c3feb100, 2024-10-09)"
   sodipodi:docname="trigger.svg"
   xml:space="preserve"
   xmlns:inkscape="http://www.inkscape.org/namespaces/inkscape"
   xmlns:sodipodi="http://sodipodi.sourceforge.net/DTD/sodipodi-0.dtd"
   xmlns="http://www.w3.org/2000/svg"
   xmlns:svg="http://www.w3.org/2000/svg"><sodipodi:namedview
     id="namedview1"
     pagecolor="#808080"
     bordercolor="#000000"
     borderopacity="0.25"
     inkscape:showpageshadow="2"
     inkscape:pageopacity="0.0"
     inkscape:pagecheckerboard="0"
     inkscape:deskcolor="#d1d1d1"
     inkscape:document-units="px"
     inkscape:zoom="23.91762"
     inkscape:cx="3.5120551"
     inkscape:cy="12.522149"
     inkscape:window-width="2560"
     inkscape:window-height="1048"
     inkscape:window-x="0"
     inkscape:window-y="0"
     inkscape:window-maximized="1"
     inkscape:current-layer="layer1" /><defs
     id="defs1" /><g
     inkscape:label="Layer 1"
     inkscape:groupmode="layer"
     id="layer1"><path
       d="m 6.9628906,0.21875 a 0.89999998,0.89999998 0 0 0 -0.6367187,0.26367188 0.89999998,0.89999998 0 0 0 0,1.27343752 L 7.375,2.8027344 8.3261719,3.7558594 a 0.89999998,0.89999998 0 0 0 0.6660156,0.2519531 c 2.7658385,0 4.9882815,2.2224419 4.9882815,4.9882813 0,2.7658392 -2.222443,4.9882812 -4.9882815,4.9882812 -2.744885,0 -4.9530051,-2.189163 -4.9863281,-4.9257812 A 0.89999998,0.89999998 0 0 0 3.7578125,8.265625 l -2,-2 A 0.89999998,0.89999998 0 0 0 1.1230469,6.0019531 0.89999998,0.89999998 0 0 0 0.48632813,6.265625 a 0.89999998,0.89999998 0 0 0 0,1.2714844 L 2.2148438,9.265625 c 0.142802,3.611979 3.1315017,6.515625 6.7773437,6.515625 3.7363665,0 6.7851565,-3.048789 6.7851565,-6.7851562 0,-3.6215616 -2.862961,-6.597904 -6.4414065,-6.7773438 L 8.6464844,1.5292969 7.5996094,0.48242188 A 0.89999998,0.89999998 0 0 0 6.9628906,0.21875 Z"
       style="fill:#ffffff;fill-opacity:0.5;stroke-linecap:round"
       id="path23" /><path
       d="m 1.3730469,0.3515625 a 0.89999998,0.89999998 0 0 0 -0.63671878,0.26367187 0.89999998,0.89999998 0 0 0 0,1.27148433 L 4.5175781,5.6699219 a 0.89999998,0.89999998 0 0 0 1.2734375,0 0.89999998,0.89999998 0 0 0 0,-1.2734375 L 2.0078125,0.61523437 A 0.89999998,0.89999998 0 0 0 1.3730469,0.3515625 Z"
       style="fill:#ffffff;fill-opacity:0.5;stroke-linecap:round"
       id="path22" /></g></svg>
