<?xml version="1.0" encoding="UTF-8" standalone="no"?>
<svg
   xml:space="preserve"
   width="16"
   height="16"
   version="1.0"
   viewBox="0 0 2.4 2.4"
   id="svg2"
   sodipodi:docname="audio_mute.svg"
   inkscape:version="1.4.3 (0d15f75042, 2025-12-25)"
   xmlns:inkscape="http://www.inkscape.org/namespaces/inkscape"
   xmlns:sodipodi="http://sodipodi.sourceforge.net/DTD/sodipodi-0.dtd"
   xmlns="http://www.w3.org/2000/svg"
   xmlns:svg="http://www.w3.org/2000/svg"><defs
     id="defs2" /><sodipodi:namedview
     id="namedview2"
     pagecolor="#ffffff"
     bordercolor="#000000"
     borderopacity="0.25"
     inkscape:showpageshadow="2"
     inkscape:pageopacity="0.0"
     inkscape:pagecheckerboard="0"
     inkscape:deskcolor="#d1d1d1"
     inkscape:zoom="11.313709"
     inkscape:cx="-12.28598"
     inkscape:cy="17.810252"
     inkscape:window-width="1920"
     inkscape:window-height="1052"
     inkscape:window-x="0"
     inkscape:window-y="0"
     inkscape:window-maximized="1"
     inkscape:current-layer="svg2" /><path
     fill="#e0e0e0"
     d="M1.252.15a.1.1 0 0 0-.082.03L.6.75H.318C.225.75.15.817.15.9v.6c0 .083.075.15.168.15H.6l.57.57c.066.067.18.02.18-.074V.256A.106.106 0 0 0 1.252.15"
     paint-order="markers stroke fill"
     id="path1" /><path
     fill="none"
     stroke="#e0e0e0"
     stroke-linecap="round"
     stroke-linejoin="round"
     stroke-width=".165"
     d="M1.575.675c.45.525 0 1.05 0 1.05m.3-1.35c.675.825 0 1.65 0 1.65"
     paint-order="markers stroke fill"
     id="path2" /><rect
     style="fill:none;stroke:#585858;stroke-width:0.195;stroke-linejoin:round;stroke-dasharray:none;stroke-opacity:1"
     id="rect3"
     width="2.6818504"
     height="0.0056939502"
     x="-1.3127416"
     y="1.6962223"
     transform="rotate(-45)" /></svg>
