<?xml version="1.0" encoding="UTF-8" standalone="no"?>
<svg
   width="26"
   height="16"
   version="1.1"
   id="svg1"
   sodipodi:docname="loop_queue.svg"
   inkscape:version="1.4.4 (dcaf3e7d9e, 2026-05-05)"
   xml:space="preserve"
   xmlns:inkscape="http://www.inkscape.org/namespaces/inkscape"
   xmlns:sodipodi="http://sodipodi.sourceforge.net/DTD/sodipodi-0.dtd"
   xmlns="http://www.w3.org/2000/svg"
   xmlns:svg="http://www.w3.org/2000/svg"><defs
     id="defs1" /><sodipodi:namedview
     id="namedview1"
     pagecolor="#ffffff"
     bordercolor="#000000"
     borderopacity="0.25"
     inkscape:showpageshadow="2"
     inkscape:pageopacity="0.0"
     inkscape:pagecheckerboard="0"
     inkscape:deskcolor="#d1d1d1"
     inkscape:zoom="22.482196"
     inkscape:cx="15.389956"
     inkscape:cy="7.4058603"
     inkscape:window-width="1920"
     inkscape:window-height="1008"
     inkscape:window-x="0"
     inkscape:window-y="0"
     inkscape:window-maximized="1"
     inkscape:current-layer="svg1" /><path
     fill="#e0e0e0"
     d="m 7.9759617,1.2310991 v 2 h -2 a 5,5 0 0 0 -4,7.9999999 l 1.414,-1.414 a 3,3 0 0 1 2.586,-4.5859999 h 2 v 2 l 4.0000003,-3 z m 6.0000003,4 -1.414,1.414 a 3,3 0 0 1 -2.586,4.5859999 H 7.9759617 V 9.2310991 l -4,2.9999999 4,3 v -2 H 9.975962 a 5,5 0 0 0 4,-7.9999999 z"
     id="path1" /><g
     id="g5"
     transform="matrix(0.72261044,0,0,0.72261044,15.433534,2.1395708)"><path
       d="m 13,3.8042175 c 0,-0.552285 -0.447715,-1 -1,-1 H 3.9999998 c -0.552285,0 -1,0.447715 -1,1 v 1 c 0,0.552285 0.447715,1 1,1 H 12 c 0.552285,0 1,-0.447715 1,-1 z"
       id="path1-5"
       style="fill:#e0e0e0;fill-opacity:1" /><path
       d="m 13,7.5 c 0,-0.552285 -0.447715,-1 -1,-1 H 4 c -0.552285,0 -1,0.447715 -1,1 v 1 c 0,0.552285 0.447715,1 1,1 h 8 c 0.552285,0 1,-0.447715 1,-1 z"
       id="path1-2"
       style="fill:#e0e0e0;fill-opacity:1" /><path
       d="m 13,11.195783 c 0,-0.552285 -0.447715,-1 -1,-1 H 4 c -0.552285,0 -1,0.447715 -1,1 v 1 c 0,0.552284 0.447715,1 1,1 h 8 c 0.552285,0 1,-0.447716 1,-1 z"
       id="path1-2-7"
       style="fill:#e0e0e0;fill-opacity:1" /></g></svg>
