<?xml version="1.0" encoding="UTF-8" standalone="no"?>
<svg
   width="16"
   height="16"
   version="1.1"
   id="svg1"
   sodipodi:docname="skip_backward.svg"
   inkscape:version="1.4.4 (dcaf3e7d9e, 2026-05-05)"
   xmlns:inkscape="http://www.inkscape.org/namespaces/inkscape"
   xmlns:sodipodi="http://sodipodi.sourceforge.net/DTD/sodipodi-0.dtd"
   xmlns="http://www.w3.org/2000/svg"
   xmlns:svg="http://www.w3.org/2000/svg">
  <defs
     id="defs1" />
  <sodipodi:namedview
     id="namedview1"
     pagecolor="#ffffff"
     bordercolor="#000000"
     borderopacity="0.25"
     inkscape:showpageshadow="2"
     inkscape:pageopacity="0.0"
     inkscape:pagecheckerboard="0"
     inkscape:deskcolor="#d1d1d1"
     inkscape:zoom="18.339565"
     inkscape:cx="3.4624595"
     inkscape:cy="16.548921"
     inkscape:window-width="1920"
     inkscape:window-height="1008"
     inkscape:window-x="0"
     inkscape:window-y="0"
     inkscape:window-maximized="1"
     inkscape:current-layer="svg1">
    <inkscape:page
       x="0"
       y="0"
       width="16"
       height="16"
       id="page2"
       margin="0"
       bleed="0" />
  </sodipodi:namedview>
  <path
     fill="#e0e0e0"
     d="M 2.422853,12.481649 C 1.935332,12.469449 1.546226,12.071173 1.545404,11.5835 V 4.3839102 C 1.54512,3.6289774 2.418501,3.2092171 3.007821,3.6810503 L 7.5075624,7.280845 c 0.4490392,0.3602556 0.4490392,1.0436642 0,1.4039199 L 3.007821,12.28456 c -0.165656,0.132604 -0.37284,0.20241 -0.584968,0.197089 z"
     id="path1"
     sodipodi:nodetypes="cccccccc"
     style="stroke-width:0.899948" />
  <path
     fill="#e0e0e0"
     d="M 8.6082702,12.481649 C 8.120749,12.469449 7.7316428,12.071173 7.7308202,11.5835 V 4.3839102 C 7.7305367,3.6289774 8.6039171,3.2092171 9.1932368,3.6810503 L 13.692981,7.280845 c 0.449039,0.3602556 0.449039,1.0436642 0,1.4039199 L 9.1932368,12.28456 c -0.1656563,0.132604 -0.3728397,0.20241 -0.5849666,0.197089 z"
     id="path2"
     sodipodi:nodetypes="cccccccc"
     style="stroke-width:0.899948" />
</svg>
