<?xml version="1.0" encoding="UTF-8" standalone="no"?>
<svg
   width="16"
   height="16"
   version="1.1"
   id="svg1"
   sodipodi:docname="skip_backward.svg"
   inkscape:version="1.4.3 (0d15f75042, 2025-12-25)"
   xmlns:inkscape="http://www.inkscape.org/namespaces/inkscape"
   xmlns:sodipodi="http://sodipodi.sourceforge.net/DTD/sodipodi-0.dtd"
   xmlns="http://www.w3.org/2000/svg"
   xmlns:svg="http://www.w3.org/2000/svg">
  <defs
     id="defs1" />
  <sodipodi:namedview
     id="namedview1"
     pagecolor="#ffffff"
     bordercolor="#000000"
     borderopacity="0.25"
     inkscape:showpageshadow="2"
     inkscape:pageopacity="0.0"
     inkscape:pagecheckerboard="0"
     inkscape:deskcolor="#d1d1d1"
     inkscape:zoom="49.9375"
     inkscape:cx="7.9899875"
     inkscape:cy="8"
     inkscape:window-width="1920"
     inkscape:window-height="1008"
     inkscape:window-x="0"
     inkscape:window-y="0"
     inkscape:window-maximized="1"
     inkscape:current-layer="svg1" />
  <path
     fill="#e0e0e0"
     d="m 3.9999999,13.002256 c 0.552285,0 1,-0.447716 1,-1 V 4.0022556 c 0,-0.552285 -0.447715,-1 -1,-1 h -1 c -0.552285,0 -1,0.447715 -1,1 v 8.0000004 c 0,0.552284 0.447715,1 1,1 z m 9.0250001,-0.002 c 0.541721,-0.01355 0.974086,-0.45611 0.975,-0.998 V 4.0022556 c 3.15e-4,-0.838862 -0.970163,-1.305289 -1.625,-0.781 l -5.0000001,4 c -0.4989606,0.4003069 -0.4989606,1.1596931 0,1.56 L 12.375,12.781256 c 0.184073,0.147346 0.41429,0.224912 0.65,0.219 z"
     id="path1" />
</svg>
