<?xml version="1.0" encoding="UTF-8" standalone="no"?>
<svg
   width="16"
   height="16"
   version="1.1"
   id="svg1"
   sodipodi:docname="change_sort_mode.svg"
   inkscape:version="1.4.3 (0d15f75042, 2025-12-25)"
   xmlns:inkscape="http://www.inkscape.org/namespaces/inkscape"
   xmlns:sodipodi="http://sodipodi.sourceforge.net/DTD/sodipodi-0.dtd"
   xmlns="http://www.w3.org/2000/svg"
   xmlns:svg="http://www.w3.org/2000/svg">
  <defs
     id="defs1">
    <inkscape:path-effect
       effect="powerclip"
       message=""
       id="path-effect2"
       is_visible="true"
       lpeversion="1"
       inverse="true"
       flatten="false"
       hide_clip="false" />
    <inkscape:path-effect
       effect="powerclip"
       message=""
       id="path-effect5"
       is_visible="true"
       lpeversion="1"
       inverse="true"
       flatten="false"
       hide_clip="false" />
    <filter
       id="mask-powermask-path-effect2_inverse"
       inkscape:label="filtermask-powermask-path-effect2"
       style="color-interpolation-filters:sRGB"
       height="100"
       width="100"
       x="-50"
       y="-50">
      <feColorMatrix
         id="mask-powermask-path-effect2_primitive1"
         values="1"
         type="saturate"
         result="fbSourceGraphic" />
      <feColorMatrix
         id="mask-powermask-path-effect2_primitive2"
         values="-1 0 0 0 1 0 -1 0 0 1 0 0 -1 0 1 0 0 0 1 0 "
         in="fbSourceGraphic" />
    </filter>
  </defs>
  <sodipodi:namedview
     id="namedview1"
     pagecolor="#000000"
     bordercolor="#000000"
     borderopacity="0.25"
     inkscape:showpageshadow="2"
     inkscape:pageopacity="0.0"
     inkscape:pagecheckerboard="0"
     inkscape:deskcolor="#d1d1d1"
     inkscape:zoom="24.363408"
     inkscape:cx="0.14365807"
     inkscape:cy="10.158677"
     inkscape:window-width="1920"
     inkscape:window-height="1008"
     inkscape:window-x="0"
     inkscape:window-y="0"
     inkscape:window-maximized="1"
     inkscape:current-layer="svg1" />
  <g
     id="g5"
     transform="translate(-1.6321177)">
    <path
       d="m 12.084631,3.2419941 c 0,-0.389581 -0.447715,-0.7053985 -1,-0.7053985 H 3.0846311 c -0.552285,0 -1,0.3158175 -1,0.7053985 v 0.7053985 c 0,0.3895803 0.447715,0.7053985 1,0.7053985 h 7.9999999 c 0.552285,0 1,-0.3158182 1,-0.7053985 z"
       id="path1-2-7"
       style="fill:#e0e0e0;fill-opacity:1;stroke-width:0.83988;stroke-dasharray:none" />
    <path
       d="m 12.084631,6.1788652 c 0,-0.389581 -0.447715,-0.7053985 -1,-0.7053985 H 3.0846309 c -0.552285,0 -1,0.3158175 -1,0.7053985 v 0.7053985 c 0,0.3895803 0.447715,0.7053985 1,0.7053985 h 8.0000001 c 0.552285,0 1,-0.3158182 1,-0.7053985 z"
       id="path1"
       style="fill:#e0e0e0;fill-opacity:1;stroke-width:0.83988;stroke-dasharray:none" />
    <path
       d="m 12.084631,9.1473006 c 0,-0.3895814 -0.447715,-0.7053984 -1,-0.7053984 H 3.0846309 c -0.552285,0 -1,0.315817 -1,0.7053984 v 0.7053986 c 0,0.3895798 0.447715,0.7053978 1,0.7053978 h 8.0000001 c 0.552285,0 1,-0.315818 1,-0.7053978 z"
       id="path2"
       style="fill:#e0e0e0;fill-opacity:1;stroke-width:0.83988;stroke-dasharray:none" />
    <path
       d="m 12.084631,12.145922 c 0,-0.389581 -0.447715,-0.705398 -1,-0.705398 H 3.0846309 c -0.552285,0 -1,0.315817 -1,0.705398 v 0.705399 c 0,0.38958 0.447715,0.705398 1,0.705398 h 8.0000001 c 0.552285,0 1,-0.315818 1,-0.705398 z"
       id="path3"
       style="fill:#e0e0e0;fill-opacity:1;stroke-width:0.83988;stroke-dasharray:none" />
  </g>
  <path
     d="m 10.950364,2.3910801 v 9.7512609 c 0,0.374473 0.193342,0.678043 0.43184,0.678043 h 0.43184 c 0.238499,0 0.43184,-0.30357 0.43184,-0.678043 V 2.3910801 h 1.390833 L 11.593275,0.00538675 9.4894341,2.3910801 Z"
     id="path4"
     style="fill:#e0e0e0;fill-opacity:1;stroke-width:0.541115;stroke-dasharray:none"
     sodipodi:nodetypes="cssssccccc" />
  <path
     d="M 14.478295,13.21358 V 3.4623182 c 0,-0.374473 -0.193342,-0.678043 -0.43184,-0.678043 h -0.43184 c -0.238499,0 -0.43184,0.30357 -0.43184,0.678043 V 13.21358 h -1.390833 l 2.043442,2.385693 2.103841,-2.385693 z"
     id="path5"
     style="fill:#e0e0e0;fill-opacity:1;stroke-width:0.541115;stroke-dasharray:none"
     sodipodi:nodetypes="cssssccccc" />
</svg>
