<?xml version="1.0" encoding="UTF-8" standalone="no"?>
<!-- Uploaded to: SVG Repo, www.svgrepo.com, Generator: SVG Repo Mixer Tools -->

<svg
   fill="#000000"
   width="16"
   height="16"
   viewBox="0 0 0.64 0.64"
   style="clip-rule:evenodd;fill-rule:evenodd;stroke-linejoin:round;stroke-miterlimit:2"
   version="1.1"
   xml:space="preserve"
   id="svg1"
   sodipodi:docname="piano-instrument-keyboard-svgrepo-com.svg"
   inkscape:version="1.4.3 (0d15f75042, 2025-12-25)"
   xmlns:inkscape="http://www.inkscape.org/namespaces/inkscape"
   xmlns:sodipodi="http://sodipodi.sourceforge.net/DTD/sodipodi-0.dtd"
   xmlns="http://www.w3.org/2000/svg"
   xmlns:svg="http://www.w3.org/2000/svg"><defs
     id="defs1" /><sodipodi:namedview
     id="namedview1"
     pagecolor="#ffffff"
     bordercolor="#000000"
     borderopacity="0.25"
     inkscape:showpageshadow="2"
     inkscape:pageopacity="0.0"
     inkscape:pagecheckerboard="0"
     inkscape:deskcolor="#d1d1d1"
     inkscape:zoom="18.658172"
     inkscape:cx="2.9745679"
     inkscape:cy="5.8687421"
     inkscape:window-width="1920"
     inkscape:window-height="1008"
     inkscape:window-x="0"
     inkscape:window-y="0"
     inkscape:window-maximized="1"
     inkscape:current-layer="svg1" /><path
     d="m 0.1630355,0.09588517 h -0.0196188 c -0.0156168,0 -0.0305855,0.0062 -0.0416115,0.0172449 -0.01104554,0.0110258 -0.01724498,0.025995 -0.01724498,0.0416115 0,0.0820852 0,0.27105373 0,0.35313891 0,0.0156166 0.0061994,0.0305858 0.01724498,0.0416116 0.011026,0.0110453 0.0259951,0.0172449 0.0416115,0.0172449 h 0.0587191 L 0.20139013,0.37054876 h -0.018736 c -0.0108296,0 -0.0196188,-0.008789 -0.0196188,-0.0196188 z m 0.19618828,0 h -0.0784753 v 0.25504477 c 0,0.0108296 -0.008789,0.0196188 -0.0196188,0.0196188 h -0.0205017 l 7.4568e-4,0.19618827 h 0.15712722 l -3.924e-5,-0.19618827 h -0.0196188 c -0.0108296,0 -0.0196188,-0.008789 -0.0196188,-0.0196188 z m 0.11771296,0 v 0.25504477 c 0,0.0108296 -0.008789,0.0196188 -0.0196188,0.0196188 h -0.0196188 l 3.923e-5,0.19618827 h 0.0588565 c 0.0156166,0 0.0305858,-0.0062 0.0416311,-0.0172449 0.0110258,-0.0110258 0.0172253,-0.025995 0.0172253,-0.0416116 V 0.15474162 c 0,-0.0156166 -0.0062,-0.0305857 -0.0172253,-0.0416115 -0.0110454,-0.0110454 -0.0260146,-0.0172449 -0.0416311,-0.0172449 z"
     id="path1"
     style="fill:#e0e0e0;fill-opacity:1;stroke-width:0.0196188" /></svg>
