<?xml version="1.0" encoding="UTF-8" standalone="no"?>
<svg
   width="16"
   height="16"
   version="1.1"
   id="svg1"
   sodipodi:docname="queue.svg"
   inkscape:version="1.4.3 (0d15f75042, 2025-12-25)"
   xmlns:inkscape="http://www.inkscape.org/namespaces/inkscape"
   xmlns:sodipodi="http://sodipodi.sourceforge.net/DTD/sodipodi-0.dtd"
   xmlns="http://www.w3.org/2000/svg"
   xmlns:svg="http://www.w3.org/2000/svg">
  <defs
     id="defs1" />
  <sodipodi:namedview
     id="namedview1"
     pagecolor="#ffffff"
     bordercolor="#000000"
     borderopacity="0.25"
     inkscape:showpageshadow="2"
     inkscape:pageopacity="0.0"
     inkscape:pagecheckerboard="0"
     inkscape:deskcolor="#d1d1d1"
     inkscape:zoom="26.867619"
     inkscape:cx="8.4488322"
     inkscape:cy="8.0580272"
     inkscape:window-width="1920"
     inkscape:window-height="1008"
     inkscape:window-x="0"
     inkscape:window-y="0"
     inkscape:window-maximized="1"
     inkscape:current-layer="svg1" />
  <path
     d="m 13,3.8042175 c 0,-0.552285 -0.447715,-1 -1,-1 H 3.9999998 c -0.552285,0 -1,0.447715 -1,1 v 1 c 0,0.552285 0.447715,1 1,1 H 12 c 0.552285,0 1,-0.447715 1,-1 z"
     id="path1"
     style="fill:#e0e0e0;fill-opacity:1" />
  <path
     d="m 13,7.5 c 0,-0.552285 -0.447715,-1 -1,-1 H 4 c -0.552285,0 -1,0.447715 -1,1 v 1 c 0,0.552285 0.447715,1 1,1 h 8 c 0.552285,0 1,-0.447715 1,-1 z"
     id="path1-2"
     style="fill:#e0e0e0;fill-opacity:1" />
  <path
     d="m 13,11.195783 c 0,-0.552285 -0.447715,-1 -1,-1 H 4 c -0.552285,0 -1,0.447715 -1,1 v 1 c 0,0.552284 0.447715,1 1,1 h 8 c 0.552285,0 1,-0.447716 1,-1 z"
     id="path1-2-7"
     style="fill:#e0e0e0;fill-opacity:1" />
</svg>
