<?xml version='1.0' encoding='utf-8'?>
<svg xmlns="http://www.w3.org/2000/svg" width="225.55194mm" height="333.27121mm" viewBox="0 0 225.55194 333.27121" version="1.1" id="svg5" xml:space="preserve"><defs id="defs2" /><g id="layer1"><path style="fill:#000000" d="m 119.35800000000017 333.09300000000076 c -3.147,-0.128 -13.705,-1.192 -13.924,-1.403 -0.09,-0.09 1.049,-1.304 2.533,-2.704 3.029,-2.857 8.253,-6.157 13.448,-8.495 1.907,-0.858 3.537,-1.631 3.622,-1.716 0.08,-0.08 -3.618,-0.246 -8.23,-0.357 -7.575,-0.183 -8.428,-0.145 -8.833,0.389 -3.903,5.149 -10.891,7.533 -26.186,8.932 -8.706,0.796 -31.88,0.605 -44.98,-0.37 -6.014,-0.447 -11.052,-0.921 -11.194,-1.053 -0.384,-0.354 3.657,-4.689 6.042,-6.482 2.557,-1.922 7.451,-4.476 11.287,-5.89 1.588,-0.585 5.837,-1.787 9.443,-2.669 6.984,-1.71 8.225,-2.176 9.095,-3.419 0.885,-1.263 0.66,-2.409 -1.227,-6.268 -5.365,-10.971 -8.623,-21.082 -10.185,-31.61 -0.999,-6.737 -1.037,-7.099 -0.673,-6.496 0.176,0.291 1.098,1.849 2.049,3.462 2.854,4.84 5.605,8.428 9.841,12.834 6.638,6.906 13.07,11.591 21.736,15.834 11.392,5.576 23.18,8.272 37.924,8.673 11.234,0.306 18.291,-0.895 25.223,-4.291 4.487,-2.198 7.241,-4.426 12.791,-10.347 6.782,-7.236 8.728,-9.038 11.178,-10.349 1.603,-0.858 2.578,-1.142 3.901,-1.136 2.907,0.01 4.854,1.299 8.741,5.781 1.558,1.797 1.489,1.64 -0.929,-2.116 -10.087,-15.668 -17.018,-32.402 -21.554,-52.035 -2.937,-12.712 -4.022,-21.414 -5.148,-41.275 -0.789,-13.929 -1.959,-18.35 -6.626,-25.047 -6.355,-9.121 -7.333,-11.14 -8.878,-18.335 -2.488,-11.588 -7.007,-20.669 -14.717,-29.572 -12.012,-13.873 -30.222,-21.304 -45.953,-18.753 -6.033,0.979 -12.628,3.654 -16.995,6.895 -3.109,2.308 -7.297,6.664 -9.316,9.692 -2.065,3.095 -4.363,8.433 -5.435,12.624 -0.373,1.461 -1.007,4.849 -1.409,7.529 -0.401,2.68 -1.2,6.508 -1.776,8.508 -1.167,4.054 -3.565,15.056 -4.399,20.186 -2.995,18.421 -3.438,39.003 -1.223,56.788 l 0.725,5.821 -2.696,6.174 c -4.29,9.825 -10.802,22.786 -13.47,26.811 -2.829,4.266 -7.211,8.626 -10.084,10.031 -1.02,0.5 -2.726,1.091 -3.79,1.314 -1.721,0.361 -2.116,0.326 -3.56,-0.312 -4.17,-1.845 -5.919,-7.842 -5.482,-18.794 0.757,-18.999 6.034,-41.159 14.405,-60.502 4.442,-10.263 7.719,-16.051 16.333,-28.849 10.385,-15.428 9.787,-14.291 10.43,-19.834 1.717,-14.801 3.178,-20.438 7.499,-28.928 3.461,-6.802 7.973,-13.135 16.658,-23.385 2.534,-2.989 2.106,-5.235 -1.661,-8.723 -2.725,-2.523 -3.73,-3.011 -11.751,-5.706 -12.947,-4.35 -18.11,-5.636 -30.251,-7.537 -8.827,-1.382 -11.201,-2.549 -11.201,-5.508 0,-2.78 2.026,-5.382 7.216,-9.269 4.358,-3.263 8.74,-5.836 16.244,-9.536 3.493,-1.722 6.925,-3.614 7.627,-4.204 0.703,-0.59 3.003,-3.34 5.112,-6.112 6.645,-8.731 13.517,-15.31 21.49,-20.575 4.538,-2.997 11.898,-6.651 16.218,-8.052 33.008,-10.705 67.081,4.905 80.042,36.669 3.031,7.429 4.611,14.582 5.68,25.724 1.287,13.407 2.881,17.338 13.586,33.514 10.055,15.195 15.43,24.392 20.989,35.916 10.982,22.765 17.701,46.486 20.353,71.858 0.63,6.028 0.623,28.481 -0.01,33.69 -1.062,8.738 -3.421,18.638 -6.546,27.479 -0.884,2.501 -1.666,4.607 -1.739,4.68 -0.136,0.136 -0.84,-1.656 -3.801,-9.674 -2.579,-6.984 -6.429,-23.203 -8.393,-35.361 -2.241,-13.871 -2.514,-25.409 -0.949,-40.217 1.262,-11.946 1.348,-18.998 0.284,-23.302 -1.064,-4.302 -1.709,-6.084 -3.505,-9.683 -3.159,-6.328 -9.206,-14.451 -15.711,-21.104 -3.184,-3.256 -3.009,-2.844 0.647,1.525 7.252,8.666 13.045,17.189 15.322,22.54 2.078,4.883 2.633,8.015 2.599,14.678 -0.02,3.418 -0.279,7.818 -0.609,10.231 -2.34,17.133 -2.193,30.605 0.51,46.919 3.058,18.453 7.946,35.041 15.115,51.299 1.871,4.242 2.509,7.038 2.531,11.081 0.04,6.732 -2.239,9.607 -8.316,10.511 -3.495,0.52 -7.05,0 -9.799,-1.409 -1.117,-0.576 -2.12,-0.903 -2.23,-0.726 -0.109,0.177 -2.32,1.915 -4.913,3.862 -6.868,5.156 -8.013,6.703 -8.484,11.46 -0.57,5.751 -2.699,7.621 -12.176,10.696 -17.098,5.548 -34.724,7.731 -55.551,6.88 z m -0.09,-250.227 c 3.865,-1.453 6.776,-4.493 8.413,-8.788 1.081,-2.835 1.325,-9.092 0.512,-13.105 -2.068,-10.206 -8.597,-18.435 -18.363,-23.145 -5.317,-2.564 -7.839,-3.091 -14.816,-3.098 -5.884,0 -6.062,0.02 -9.418,1.17 -3.89,1.337 -8.652,4.235 -11.405,6.941 -0.975,0.958 -3.101,3.387 -4.723,5.397 -3.239,4.013 -4.687,5.111 -8.642,6.553 -4.072,1.485 -4.151,1.964 -0.325,1.964 6,0 9.718,1.639 18.153,8.008 16.018,12.093 26.067,17.931 32.587,18.931 2.121,0.326 6.029,-0.08 8.027,-0.828 z m -35.733,-29.022 c -3.082,-1.554 -3.479,-4.437 -0.949,-6.89 3.079,-2.983 8.678,-2.858 11.296,0.252 1.479,1.759 1.318,3.281 -0.545,5.145 -2.413,2.412 -6.688,3.063 -9.802,1.493 z m -41.161,6.815 c 3.579,-0.62 7.661,-2.135 7.661,-2.844 0,-0.41 -4.145,-1.317 -7.959,-1.743 -3.928,-0.439 -10.208,0.02 -14.09,1.021 -2.798,0.725 -8.201,3.044 -7.868,3.377 0.409,0.409 5.87,0.782 11.925,0.814 4.909,0.03 7.469,-0.129 10.331,-0.625 z m -23.15,-3.413 c 1.777,-0.861 5.788,-2.511 8.911,-3.667 3.124,-1.156 6.114,-2.332 6.646,-2.613 1.253,-0.662 3.487,-2.562 3.259,-2.772 -0.286,-0.263 -5.096,0.356 -7.446,0.958 -4.771,1.222 -10.931,4.728 -15.23,8.667 -2.702,2.476 -3.071,3.291 -0.872,1.924 0.825,-0.512 2.954,-1.636 4.732,-2.497 z" id="path71" /></g></svg>