<?xml version="1.0" encoding="UTF-8" standalone="no"?>
<svg
   class="svg-icon"
   style="overflow:hidden;fill:currentColor"
   viewBox="0 0 16 16"
   version="1.1"
   id="svg1"
   sodipodi:docname="shuffle.svg"
   inkscape:version="1.4.3 (0d15f75042, 2025-12-25)"
   width="16"
   height="16"
   xmlns:inkscape="http://www.inkscape.org/namespaces/inkscape"
   xmlns:sodipodi="http://sodipodi.sourceforge.net/DTD/sodipodi-0.dtd"
   xmlns="http://www.w3.org/2000/svg"
   xmlns:svg="http://www.w3.org/2000/svg">
  <defs
     id="defs1" />
  <sodipodi:namedview
     id="namedview1"
     pagecolor="#ffffff"
     bordercolor="#000000"
     borderopacity="0.25"
     inkscape:showpageshadow="2"
     inkscape:pageopacity="0.0"
     inkscape:pagecheckerboard="0"
     inkscape:deskcolor="#d1d1d1"
     inkscape:zoom="33.252374"
     inkscape:cx="10.766149"
     inkscape:cy="7.3528584"
     inkscape:window-width="1920"
     inkscape:window-height="1008"
     inkscape:window-x="0"
     inkscape:window-y="0"
     inkscape:window-maximized="1"
     inkscape:current-layer="svg1" />
  <path
     d="m 11.680289,5.7884797 h 0.83148 V 7.1493463 L 14.842217,4.7556021 12.511769,2.4136459 v 1.5536319 h -0.83148 c -2.3793582,0 -3.722962,1.7809227 -4.9083259,3.351817 C 5.7074376,8.7317495 4.7867669,10.063844 3.3021852,10.063844 H 1.9528271 c -0.9206708,0 -0.9206708,1.821203 0,1.821203 h 1.3493581 c 2.3793585,0 3.7229625,-1.8931303 4.9083261,-3.4640244 C 9.2750371,7.0083684 10.192831,5.7884797 11.680289,5.7884797 Z M 5.4398676,6.8299885 C 5.540566,6.6976421 5.6441414,6.5624185 5.7477168,6.424318 6.0009014,6.0905748 6.2655943,5.7366919 6.5533038,5.3856861 5.7016833,4.5829765 4.67456,3.9902946 3.3021852,3.9902946 H 1.9528271 c -0.9206708,0 -0.9206708,1.8245378 0,1.8212018 0,0 0.3826538,-0.017263 1.3493581,0 0.9350561,0.020139 1.5219838,0.4056706 2.1376824,1.0184921 z m 7.0719014,3.2482405 h -0.83148 c -0.906285,0 -1.602543,-0.4545806 -2.2498885,-1.1306981 -0.063296,0.086316 -0.1294697,0.1726256 -0.1956439,0.2589394 -0.284831,0.3768992 -0.5898038,0.7825699 -0.9264244,1.1824867 0.8746369,0.860251 1.9334078,1.510475 3.3719568,1.510475 h 0.83148 v 1.562264 L 14.842217,11.11974 12.511769,8.7259943 Z"
     id="path1"
     sodipodi:nodetypes="scccccscsssscscccssscccscccsccccc"
     style="fill:#e0e0e0;fill-opacity:1;stroke-width:0.0143855" />
</svg>
