<?xml version="1.0" encoding="UTF-8" standalone="no"?>
<!-- Created with Inkscape (http://www.inkscape.org/) -->

<svg
   width="100"
   height="100"
   viewBox="0 0 26.458333 26.458333"
   version="1.1"
   id="svg1"
   xml:space="preserve"
   sodipodi:docname="drawing.svg"
   inkscape:version="1.4.3 (0d15f75042, 2025-12-25)"
   xmlns:inkscape="http://www.inkscape.org/namespaces/inkscape"
   xmlns:sodipodi="http://sodipodi.sourceforge.net/DTD/sodipodi-0.dtd"
   xmlns="http://www.w3.org/2000/svg"
   xmlns:svg="http://www.w3.org/2000/svg"><sodipodi:namedview
     id="namedview1"
     pagecolor="#ffffff"
     bordercolor="#000000"
     borderopacity="0.25"
     inkscape:showpageshadow="2"
     inkscape:pageopacity="0.0"
     inkscape:pagecheckerboard="0"
     inkscape:deskcolor="#d1d1d1"
     inkscape:document-units="mm"
     inkscape:zoom="4.5483299"
     inkscape:cx="63.759667"
     inkscape:cy="59.912101"
     inkscape:window-width="1920"
     inkscape:window-height="1008"
     inkscape:window-x="0"
     inkscape:window-y="0"
     inkscape:window-maximized="1"
     inkscape:current-layer="layer1" /><defs
     id="defs1"><inkscape:perspective
       sodipodi:type="inkscape:persp3d"
       inkscape:vp_x="0.96857388 : 15.775158 : 1"
       inkscape:vp_y="-1.8369702e-13 : 1000 : 0"
       inkscape:vp_z="27.426906 : 15.775158 : 1"
       inkscape:persp3d-origin="14.197739 : 11.365437 : 1"
       id="perspective1" /></defs><g
     inkscape:label="Layer 1"
     inkscape:groupmode="layer"
     id="layer1"><path
       fill="#2998ff"
       d="M 8,1 1,4 v 8 l 7,3 7,-3 V 4 Z"
       id="path1"
       transform="matrix(1.6068625,0,0,1.6068625,0.37426667,0.37426667)" /><path
       style="fill:#3688d9;fill-opacity:1;stroke:none;stroke-width:0.864;stroke-linecap:butt;stroke-linejoin:bevel;stroke-dasharray:none;stroke-opacity:1"
       d="m 24.477204,19.656616 -8.625972,-4.294189 -2.758254,2.72334 0.139658,6.398651 z"
       id="path116"
       sodipodi:nodetypes="ccccc" /><g
       id="g112"
       transform="matrix(0.86369819,0,0,0.86369819,9.3000635,8.1224868)"
       inkscape:label="inner"><path
         fill="#2998ff"
         d="M 8,1 1,4 v 8 l 7,3 7,-3 V 4 Z"
         id="path110"
         style="fill:#f2f2f2;fill-opacity:1" /><path
         fill="#5fb2ff"
         d="M 8,15 1,12 V 4 l 7,3 z"
         id="path111"
         style="fill:#cccccc;fill-opacity:1" /><path
         fill="#a2d2ff"
         d="M 1,4 8,7 15,4 8,1 Z"
         id="path112"
         style="fill:#e5e5e5;fill-opacity:1" /></g><path
       fill="#5fb2ff"
       d="M 8,15 1,12 V 4 l 7,3 z"
       id="path2"
       transform="matrix(1.6068625,0,0,1.6068625,0.37426667,0.37426667)" /><path
       fill="#a2d2ff"
       d="M 1,4 8,7 15,4 8,1 Z"
       id="path3"
       transform="matrix(1.6068625,0,0,1.6068625,0.37426667,0.37426667)" /><path
       style="fill:#000000;fill-opacity:1;stroke:none;stroke-width:0.864;stroke-linecap:butt;stroke-linejoin:bevel;stroke-dasharray:none;stroke-opacity:1"
       d="M 6.3805901,8.6798781 16.97535,3.5814916 19.195043,4.5355567 8.8099655,9.7247863 Z"
       id="path115"
       sodipodi:nodetypes="ccccc" /><path
       style="fill:#000000;fill-opacity:1;stroke:none;stroke-width:0.864;stroke-linecap:butt;stroke-linejoin:bevel;stroke-dasharray:none;stroke-opacity:1"
       d="m 4.5689261,10.064608 5.8291459,2.530035 0.04464,1.513826 L 7.9095511,12.995125 7.6192869,20.695848 6.2338174,20.036859 6.6104955,12.436954 4.5809906,11.556655 Z"
       id="path117"
       sodipodi:nodetypes="ccccccccc" /></g></svg>
