<?xml version="1.0" encoding="UTF-8" standalone="no"?>
<!-- Uploaded to: SVG Repo, www.svgrepo.com, Generator: SVG Repo Mixer Tools -->

<svg
   fill="#000000"
   width="16"
   height="16"
   viewBox="0 0 0.48 0.48"
   version="1.1"
   id="svg2"
   sodipodi:docname="activity-svgrepo-com.svg"
   inkscape:version="1.4.3 (0d15f75042, 2025-12-25)"
   xmlns:inkscape="http://www.inkscape.org/namespaces/inkscape"
   xmlns:sodipodi="http://sodipodi.sourceforge.net/DTD/sodipodi-0.dtd"
   xmlns="http://www.w3.org/2000/svg"
   xmlns:svg="http://www.w3.org/2000/svg">
  <defs
     id="defs2" />
  <sodipodi:namedview
     id="namedview2"
     pagecolor="#ffffff"
     bordercolor="#000000"
     borderopacity="0.25"
     inkscape:showpageshadow="2"
     inkscape:pageopacity="0.0"
     inkscape:pagecheckerboard="0"
     inkscape:deskcolor="#d1d1d1"
     inkscape:zoom="18.612183"
     inkscape:cx="8.3547426"
     inkscape:cy="9.6442205"
     inkscape:window-width="1920"
     inkscape:window-height="1008"
     inkscape:window-x="0"
     inkscape:window-y="0"
     inkscape:window-maximized="1"
     inkscape:current-layer="svg2" />
  <g
     data-name="Layer 2"
     id="g2"
     transform="matrix(0.01985499,0,0,0.01985499,1.2551873e-5,0.00419854)"
     style="fill:#e5e5e5;fill-opacity:1">
    <g
       data-name="activity"
       id="g1"
       style="fill:#e5e5e5;fill-opacity:1">
      <rect
         width="24"
         height="24"
         transform="rotate(90,12,12)"
         opacity="0"
         id="rect1"
         x="0"
         y="0"
         style="fill:#e5e5e5;fill-opacity:1" />
      <path
         d="M 14.33,20 H 14.12 A 2,2 0 0 1 12.36,18.42 L 9.68,6 6.92,12.4 A 1,1 0 0 1 6,13 H 3 A 1,1 0 0 1 3,11 H 5.34 L 7.85,5.21 a 2,2 0 0 1 3.79,0.38 L 14.32,18 17.08,11.62 A 1,1 0 0 1 18,11 h 3 a 1,1 0 0 1 0,2 h -2.34 l -2.51,5.79 A 2,2 0 0 1 14.33,20 Z"
         id="path1"
         style="fill:#e5e5e5;fill-opacity:1" />
    </g>
  </g>
</svg>
