<?xml version="1.0" encoding="UTF-8" standalone="no"?>
<svg
   width="19.795391"
   height="13.878372"
   version="1.1"
   id="svg2"
   sodipodi:docname="icon.svg"
   inkscape:export-filename="..\Godot Projects\PLUGINS\PowerKey\addons\PowerKey\icon.svg"
   inkscape:export-xdpi="96"
   inkscape:export-ydpi="96"
   xml:space="preserve"
   viewBox="0 0 19.795391 13.878372"
   xmlns:inkscape="http://www.inkscape.org/namespaces/inkscape"
   xmlns:sodipodi="http://sodipodi.sourceforge.net/DTD/sodipodi-0.dtd"
   xmlns="http://www.w3.org/2000/svg"
   xmlns:svg="http://www.w3.org/2000/svg"><defs
     id="defs2" /><sodipodi:namedview
     id="namedview2"
     pagecolor="#505050"
     bordercolor="#ffffff"
     borderopacity="1"
     inkscape:showpageshadow="0"
     inkscape:pageopacity="0"
     inkscape:pagecheckerboard="1"
     inkscape:deskcolor="#505050"><inkscape:page
       x="0"
       y="0"
       width="19.795391"
       height="13.878372"
       id="page1"
       margin="0"
       bleed="0" /></sodipodi:namedview><rect
     style="fill:#ffffff;fill-opacity:0;stroke:#000000;stroke-width:0;stroke-linecap:square;stroke-miterlimit:8;paint-order:fill markers stroke"
     id="rect1"
     width="19.795391"
     height="13.878372"
     x="5.8705041e-11"
     y="2.220446e-16"
     ry="0"
     inkscape:label="placeholder" /><path
     style="fill:#ffffff;fill-opacity:1;stroke-width:0.71271"
     d="m 16.864009,6.927568 -1.275755,0.637164 0.206687,0.4105233 h -1.701243 v 1.4254222 h 0.584424 a 3.8714515,3.8714515 0 0 0 0.855253,1.9457045 c -0.43903,0.116171 -0.96715,0.189579 -1.615005,0.192433 v 1.425422 c 1.195218,-0.0071 2.167358,-0.223078 2.929959,-0.594403 0.762602,0.370612 1.73474,0.588698 2.929959,0.594403 v -1.425422 c -0.647855,0 -1.175975,-0.07555 -1.615006,-0.192433 a 3.8714515,3.8714515 0 0 0 0.870936,-1.9457045 h 0.761174 V 7.9752553 H 17.387139 Z M 16.134191,9.4006775 H 17.57672 A 2.4460274,2.4460274 0 0 1 16.855455,10.671443 2.4460274,2.4460274 0 0 1 16.134191,9.4006775 Z"
     id="path5"
     inkscape:label="char right" /><path
     style="fill:#ffffff;fill-opacity:1;stroke-width:0.859481"
     d="m 5.1834225,1.6234237 a 0.85947776,0.85947776 0 0 0 -1.4740042,-0.599055 2.5784335,2.5784335 0 1 0 0,4.6343037 0.85947776,0.85947776 0 0 0 1.4740042,-0.597337 z M 2.6049887,2.4829023 a 0.85947801,0.85947801 0 0 1 0,1.7189554 0.85947801,0.85947801 0 0 1 0,-1.7189554 z"
     id="path1-0"
     inkscape:label="char left" /><g
     id="g5"
     transform="matrix(0.99131231,0,0,0.99131231,1.691174,-0.99131231)"
     inkscape:label="scroll"><path
       fill="#e0e0e0"
       d="M 6,1 A 2,2 0 0 0 4,3 v 7 H 1 v 3 a 2,2 0 0 0 2,2 h 7 a 2,2 0 0 0 2,-2 V 5 h 3 V 3 A 2,2 0 0 0 13,1 Z"
       id="path1-2" /><path
       fill-opacity="0.2"
       d="M 6,1 A 2,2 0 0 0 4,3 v 7 H 1 v 3 a 2,2 0 1 0 4,0 V 3 a 1,1 0 0 1 2,0 v 3 h 5 V 5 H 8 V 3 A 2,2 0 0 0 6,1 Z M 2,11 h 2 v 2 a 1,1 0 0 1 -2,0 z"
       id="path2-4" /></g><rect
     style="fill:#ffffff;fill-opacity:1;stroke:#000000;stroke-width:0;stroke-linecap:square;stroke-miterlimit:8;stroke-dasharray:none;stroke-opacity:1;paint-order:fill markers stroke"
     id="rect5"
     width="5.339294"
     height="0.92857283"
     x="7.4743485"
     y="6.0075006"
     ry="0.46428642"
     inkscape:label="scroll text top" /><rect
     style="fill:#ffffff;fill-opacity:1;stroke:#000000;stroke-width:0;stroke-linecap:square;stroke-miterlimit:8;stroke-dasharray:none;stroke-opacity:1;paint-order:fill markers stroke"
     id="rect6"
     width="5.339294"
     height="0.92857283"
     x="7.4743485"
     y="8.2248526"
     ry="0.46428642"
     inkscape:label="scrol text middle" /><rect
     style="fill:#ffffff;fill-opacity:1;stroke:#000000;stroke-width:0;stroke-linecap:square;stroke-miterlimit:8;stroke-dasharray:none;stroke-opacity:1;paint-order:fill markers stroke"
     id="rect7"
     width="5.339294"
     height="0.92857283"
     x="7.4743485"
     y="10.504871"
     ry="0.46428642"
     inkscape:label="scroll text bottom" /></svg>
