<?xml version="1.0" encoding="UTF-8" standalone="no"?>
<svg
   width="70"
   height="70"
   version="1.1"
   id="svg2"
   sodipodi:docname="icon_large.svg"
   inkscape:export-filename="icon.svg"
   inkscape:export-xdpi="96"
   inkscape:export-ydpi="96"
   xml:space="preserve"
   viewBox="0 0 70 70"
   xmlns:inkscape="http://www.inkscape.org/namespaces/inkscape"
   xmlns:sodipodi="http://sodipodi.sourceforge.net/DTD/sodipodi-0.dtd"
   xmlns="http://www.w3.org/2000/svg"
   xmlns:svg="http://www.w3.org/2000/svg"><defs
     id="defs2" /><sodipodi:namedview
     id="namedview2"
     pagecolor="#505050"
     bordercolor="#ffffff"
     borderopacity="1"
     inkscape:showpageshadow="0"
     inkscape:pageopacity="0"
     inkscape:pagecheckerboard="1"
     inkscape:deskcolor="#505050"><inkscape:page
       x="0"
       y="0"
       width="70"
       height="70"
       id="page1"
       margin="0"
       bleed="0" /></sodipodi:namedview><rect
     style="fill:#ffffff;fill-opacity:0;stroke:#000000;stroke-width:0;stroke-linecap:square;stroke-miterlimit:8;paint-order:fill markers stroke"
     id="rect1"
     width="70"
     height="49.07637"
     x="0"
     y="11"
     ry="0"
     inkscape:label="placeholder" /><path
     style="fill:#ffffff;fill-opacity:1;stroke-width:2.52026"
     d="m 59.634112,35.497103 -4.511295,2.253124 0.730882,1.451684 h -6.015895 v 5.040543 h 2.066625 a 13.690136,13.690136 0 0 0 3.024325,6.880355 c -1.552486,0.410801 -3.420013,0.670385 -5.710942,0.680476 v 5.040545 c 4.226501,-0.0251 7.664162,-0.788844 10.360851,-2.101914 2.696696,1.310549 6.134348,2.081741 10.360855,2.101914 v -5.040545 c -2.29093,0 -4.158457,-0.267158 -5.710948,-0.680476 a 13.690136,13.690136 0 0 0 3.079783,-6.880355 h 2.691646 v -5.040543 h -8.516007 z m -2.580766,8.745351 h 5.101038 a 8.6495846,8.6495846 0 0 1 -2.55052,4.493652 8.6495846,8.6495846 0 0 1 -2.550518,-4.493652 z"
     id="path5"
     inkscape:label="char right" /><path
     style="fill:#ffffff;fill-opacity:1;stroke-width:3.03927"
     d="m 18.329496,16.740713 a 3.039265,3.039265 0 0 0 -5.212338,-2.118365 9.117796,9.117796 0 1 0 0,16.387716 3.039265,3.039265 0 0 0 5.212338,-2.112289 z m -9.1177966,3.039268 a 3.0392658,3.0392658 0 0 1 0,6.078529 3.0392658,3.0392658 0 0 1 0,-6.078529 z"
     id="path1-0"
     inkscape:label="char left" /><g
     id="g5"
     transform="matrix(3.5054553,0,0,3.5054553,5.9802897,7.494545)"
     inkscape:label="scroll"><path
       fill="#e0e0e0"
       d="M 6,1 A 2,2 0 0 0 4,3 v 7 H 1 v 3 a 2,2 0 0 0 2,2 h 7 a 2,2 0 0 0 2,-2 V 5 h 3 V 3 A 2,2 0 0 0 13,1 Z"
       id="path1-2" /><path
       fill-opacity="0.2"
       d="M 6,1 A 2,2 0 0 0 4,3 v 7 H 1 v 3 a 2,2 0 1 0 4,0 V 3 a 1,1 0 0 1 2,0 v 3 h 5 V 5 H 8 V 3 A 2,2 0 0 0 6,1 Z M 2,11 h 2 v 2 a 1,1 0 0 1 -2,0 z"
       id="path2-4" /></g><rect
     style="fill:#ffffff;fill-opacity:1;stroke:#000000;stroke-width:0;stroke-linecap:square;stroke-miterlimit:8;stroke-dasharray:none;stroke-opacity:1;paint-order:fill markers stroke"
     id="rect5"
     width="18.880684"
     height="3.2835975"
     x="26.430616"
     y="32.243584"
     ry="1.6417987"
     inkscape:label="scroll text top" /><rect
     style="fill:#ffffff;fill-opacity:1;stroke:#000000;stroke-width:0;stroke-linecap:square;stroke-miterlimit:8;stroke-dasharray:none;stroke-opacity:1;paint-order:fill markers stroke"
     id="rect6"
     width="18.880684"
     height="3.2835975"
     x="26.430616"
     y="40.084534"
     ry="1.6417987"
     inkscape:label="scrol text middle" /><rect
     style="fill:#ffffff;fill-opacity:1;stroke:#000000;stroke-width:0;stroke-linecap:square;stroke-miterlimit:8;stroke-dasharray:none;stroke-opacity:1;paint-order:fill markers stroke"
     id="rect7"
     width="18.880684"
     height="3.2835975"
     x="26.430616"
     y="48.147079"
     ry="1.6417987"
     inkscape:label="scroll text bottom" /><rect
     style="fill:#ffffff;fill-opacity:0;stroke:#000000;stroke-width:0;stroke-linecap:square;stroke-miterlimit:8;paint-order:fill markers stroke"
     id="rect2"
     width="70"
     height="70"
     x="0"
     y="0" /></svg>
